<svg width="158" height="40" viewBox="0 0 158 40" fill="none" xmlns="http://www.w3.org/2000/svg">
<rect width="158" height="40" fill="none"/>
<rect width="38" height="40" fill="none"/>
<g filter="url(#filter0_i_0_1)">
<path d="M32.9128 15.0383C32.7148 15.0833 30.058 15.735 26.6538 17.995C26.1424 15.3833 24.6288 10.4933 20.1495 5.52L19 4.24333L17.8505 5.52167C13.3554 10.5133 11.8481 15.4167 11.3414 18.045C7.92459 15.7467 5.28834 15.0867 5.09517 15.04L3.16667 14.5867V16.6667C3.16667 28.8167 9.38126 36.6667 19 36.6667C28.4699 36.6667 34.8333 28.63 34.8333 16.6667V14.5967L32.9128 15.0383ZM14.2484 20.0633C14.2516 20.0083 14.4891 14.8967 19 9.17667C23.4555 14.8433 23.7484 20 23.75 20V20.2083C21.9744 21.7615 20.3752 23.5254 18.9842 25.465C17.5892 23.5597 16.0013 21.82 14.2484 20.2767V20.0633ZM19 33.3333C10.583 33.3333 7.04742 26.34 6.43309 19.06C9.05351 20.2567 13.7418 23.1033 17.6858 29.265L19.0174 31.3467L20.3237 29.2467C24.1648 23.0667 28.9133 20.2283 31.559 19.0433C30.9288 26.09 27.398 33.3333 19 33.3333Z" fill="#1A0505" fill-opacity="0.1"/>
<path d="M32.9128 15.0383C32.7148 15.0833 30.058 15.735 26.6538 17.995C26.1424 15.3833 24.6288 10.4933 20.1495 5.52L19 4.24333L17.8505 5.52167C13.3554 10.5133 11.8481 15.4167 11.3414 18.045C7.92459 15.7467 5.28834 15.0867 5.09517 15.04L3.16667 14.5867V16.6667C3.16667 28.8167 9.38126 36.6667 19 36.6667C28.4699 36.6667 34.8333 28.63 34.8333 16.6667V14.5967L32.9128 15.0383ZM14.2484 20.0633C14.2516 20.0083 14.4891 14.8967 19 9.17667C23.4555 14.8433 23.7484 20 23.75 20V20.2083C21.9744 21.7615 20.3752 23.5254 18.9842 25.465C17.5892 23.5597 16.0013 21.82 14.2484 20.2767V20.0633ZM19 33.3333C10.583 33.3333 7.04742 26.34 6.43309 19.06C9.05351 20.2567 13.7418 23.1033 17.6858 29.265L19.0174 31.3467L20.3237 29.2467C24.1648 23.0667 28.9133 20.2283 31.559 19.0433C30.9288 26.09 27.398 33.3333 19 33.3333Z" fill="#020614" fill-opacity="0.52"/>
</g>
<path d="M47.4629 28.1816C47.4629 28.8132 47.349 29.3796 47.1211 29.8809C46.8997 30.3757 46.5807 30.7956 46.1641 31.1406C45.7474 31.4857 45.2396 31.7493 44.6406 31.9316C44.0417 32.1074 43.3678 32.1953 42.6191 32.1953C41.8965 32.1953 41.2194 32.1367 40.5879 32.0195C39.9629 31.9089 39.4388 31.7428 39.0156 31.5215V29.7832C39.237 29.8874 39.4876 29.9915 39.7676 30.0957C40.054 30.1934 40.3535 30.2812 40.666 30.3594C40.9785 30.4375 41.3008 30.5026 41.6328 30.5547C41.9648 30.6003 42.2936 30.623 42.6191 30.623C43.6608 30.623 44.429 30.4277 44.9238 30.0371C45.4251 29.6465 45.6758 29.0866 45.6758 28.3574C45.6758 28.0059 45.627 27.6999 45.5293 27.4395C45.4382 27.179 45.2721 26.9414 45.0312 26.7266C44.7969 26.5052 44.4811 26.2936 44.084 26.0918C43.6868 25.8835 43.1855 25.6589 42.5801 25.418C42.0007 25.1901 41.4961 24.9427 41.0664 24.6758C40.6432 24.4023 40.2917 24.0964 40.0117 23.7578C39.7383 23.4193 39.5332 23.0352 39.3965 22.6055C39.2663 22.1758 39.2012 21.6875 39.2012 21.1406C39.2012 20.5677 39.3053 20.0566 39.5137 19.6074C39.722 19.1582 40.015 18.7806 40.3926 18.4746C40.7702 18.1621 41.2194 17.9245 41.7402 17.7617C42.2676 17.599 42.847 17.5176 43.4785 17.5176C44.2533 17.5176 44.9499 17.5924 45.5684 17.7422C46.1868 17.8854 46.737 18.071 47.2188 18.2988L46.5645 19.8223C46.1413 19.6335 45.6595 19.4707 45.1191 19.334C44.5853 19.1908 44.0319 19.1191 43.459 19.1191C42.6647 19.1191 42.0495 19.3047 41.6133 19.6758C41.1771 20.0404 40.959 20.5352 40.959 21.1602C40.959 21.5312 41.0078 21.8535 41.1055 22.127C41.2031 22.3939 41.3659 22.638 41.5938 22.8594C41.8216 23.0742 42.1211 23.2793 42.4922 23.4746C42.8698 23.6634 43.332 23.8652 43.8789 24.0801C44.4714 24.3145 44.9889 24.5553 45.4316 24.8027C45.8809 25.0501 46.2552 25.3301 46.5547 25.6426C46.8542 25.9551 47.0788 26.3164 47.2285 26.7266C47.3848 27.1367 47.4629 27.6217 47.4629 28.1816ZM54.1914 32.1953C53.5339 32.1953 52.9186 32.0944 52.3457 31.8926C51.7728 31.6842 51.2747 31.3587 50.8516 30.916C50.4284 30.4668 50.0964 29.8971 49.8555 29.207C49.6146 28.5104 49.4941 27.6738 49.4941 26.6973C49.4941 25.6751 49.6178 24.8092 49.8652 24.0996C50.1126 23.3835 50.4512 22.804 50.8809 22.3613C51.3171 21.9121 51.8249 21.5866 52.4043 21.3848C52.9837 21.1829 53.6055 21.082 54.2695 21.082C54.7773 21.082 55.2721 21.1374 55.7539 21.248C56.2422 21.3587 56.6491 21.4954 56.9746 21.6582L56.4473 23.1621C56.2975 23.097 56.1315 23.0352 55.9492 22.9766C55.7669 22.9115 55.5781 22.8561 55.3828 22.8105C55.1875 22.7585 54.9954 22.7194 54.8066 22.6934C54.6178 22.6608 54.4388 22.6445 54.2695 22.6445C53.2474 22.6445 52.502 22.9733 52.0332 23.6309C51.5645 24.2819 51.3301 25.2975 51.3301 26.6777C51.3301 28.0514 51.5645 29.0573 52.0332 29.6953C52.5085 30.3268 53.2279 30.6426 54.1914 30.6426C54.7188 30.6426 55.194 30.584 55.6172 30.4668C56.0469 30.3431 56.4375 30.1999 56.7891 30.0371V31.6191C56.4375 31.8079 56.0599 31.9512 55.6562 32.0488C55.2591 32.1465 54.7708 32.1953 54.1914 32.1953ZM61.125 32H59.3477V21.2773H61.125V32ZM59.2109 18.377C59.2109 17.9863 59.3086 17.7031 59.5039 17.5273C59.7057 17.3516 59.9531 17.2637 60.2461 17.2637C60.3893 17.2637 60.5228 17.2865 60.6465 17.332C60.7767 17.3711 60.8874 17.4362 60.9785 17.5273C61.0762 17.6185 61.151 17.7357 61.2031 17.8789C61.2617 18.0156 61.291 18.1816 61.291 18.377C61.291 18.7546 61.1868 19.0378 60.9785 19.2266C60.7767 19.4089 60.5326 19.5 60.2461 19.5C59.9531 19.5 59.7057 19.4089 59.5039 19.2266C59.3086 19.0443 59.2109 18.7611 59.2109 18.377Z" fill="#FAF1F1"/>
<path d="M63.625 27.459V25.8184H68.4688V27.459H63.625Z" fill="white"/>
<path d="M71.2129 17.7227H75.1094C75.9427 17.7227 76.6751 17.7878 77.3066 17.918C77.9447 18.0417 78.4753 18.2467 78.8984 18.5332C79.3281 18.8132 79.6504 19.1842 79.8652 19.6465C80.0801 20.1022 80.1875 20.6654 80.1875 21.3359C80.1875 21.7396 80.1224 22.1172 79.9922 22.4688C79.8685 22.8203 79.6862 23.1296 79.4453 23.3965C79.2044 23.6634 78.9049 23.888 78.5469 24.0703C78.1953 24.2461 77.7949 24.3633 77.3457 24.4219V24.5195C77.7949 24.5977 78.2148 24.7116 78.6055 24.8613C79.0026 25.0046 79.3477 25.2064 79.6406 25.4668C79.9336 25.7207 80.1647 26.043 80.334 26.4336C80.5033 26.8242 80.5879 27.2995 80.5879 27.8594C80.5879 28.5104 80.4805 29.0931 80.2656 29.6074C80.0573 30.1152 79.7513 30.5482 79.3477 30.9062C78.9505 31.2578 78.4655 31.528 77.8926 31.7168C77.3197 31.9056 76.6719 32 75.9492 32H71.2129V17.7227ZM73.0293 23.7773H75.4121C75.959 23.7773 76.418 23.7285 76.7891 23.6309C77.1602 23.5332 77.4596 23.39 77.6875 23.2012C77.9154 23.0059 78.0781 22.765 78.1758 22.4785C78.2799 22.1855 78.332 21.847 78.332 21.4629C78.332 20.6816 78.0814 20.1217 77.5801 19.7832C77.0788 19.4447 76.2878 19.2754 75.207 19.2754H73.0293V23.7773ZM73.0293 25.3008V30.457H75.627C76.1999 30.457 76.6784 30.3919 77.0625 30.2617C77.4531 30.1315 77.7656 29.9492 78 29.7148C78.2409 29.4805 78.4134 29.2005 78.5176 28.875C78.6217 28.543 78.6738 28.1784 78.6738 27.7812C78.6738 27.4167 78.6185 27.0814 78.5078 26.7754C78.4036 26.4694 78.2279 26.209 77.9805 25.9941C77.7396 25.7728 77.4173 25.6035 77.0137 25.4863C76.61 25.3626 76.1087 25.3008 75.5098 25.3008H73.0293ZM89.4355 32L89.0742 30.5156H88.9961C88.7812 30.8086 88.5664 31.0625 88.3516 31.2773C88.1367 31.4857 87.9023 31.6582 87.6484 31.7949C87.3945 31.9316 87.1113 32.0326 86.7988 32.0977C86.4863 32.1628 86.125 32.1953 85.7148 32.1953C85.2656 32.1953 84.8522 32.1302 84.4746 32C84.097 31.8763 83.7682 31.6842 83.4883 31.4238C83.2148 31.1569 83 30.8249 82.8438 30.4277C82.6875 30.0241 82.6094 29.5488 82.6094 29.002C82.6094 27.9342 82.9837 27.1139 83.7324 26.541C84.4876 25.9681 85.6335 25.6556 87.1699 25.6035L88.9668 25.5352V24.8613C88.9668 24.4251 88.918 24.0605 88.8203 23.7676C88.7292 23.4746 88.5924 23.2402 88.4102 23.0645C88.2344 22.8822 88.013 22.752 87.7461 22.6738C87.4857 22.5957 87.1862 22.5566 86.8477 22.5566C86.3073 22.5566 85.8027 22.6348 85.334 22.791C84.8717 22.9473 84.4258 23.1361 83.9961 23.3574L83.3711 22.0195C83.8529 21.7591 84.39 21.5378 84.9824 21.3555C85.5749 21.1732 86.1966 21.082 86.8477 21.082C87.5117 21.082 88.0846 21.1504 88.5664 21.2871C89.0547 21.4173 89.4551 21.6289 89.7676 21.9219C90.0866 22.2083 90.3242 22.5762 90.4805 23.0254C90.6367 23.4746 90.7148 24.0182 90.7148 24.6562V32H89.4355ZM86.1738 30.7598C86.571 30.7598 86.9388 30.6979 87.2773 30.5742C87.6159 30.4505 87.9089 30.265 88.1562 30.0176C88.4036 29.7637 88.5957 29.4479 88.7324 29.0703C88.8757 28.6862 88.9473 28.237 88.9473 27.7227V26.7559L87.5508 26.8242C86.9648 26.8503 86.4733 26.9154 86.0762 27.0195C85.679 27.1237 85.36 27.2702 85.1191 27.459C84.8848 27.6413 84.7155 27.8659 84.6113 28.1328C84.5072 28.3932 84.4551 28.6895 84.4551 29.0215C84.4551 29.6204 84.6113 30.0599 84.9238 30.3398C85.2428 30.6198 85.6595 30.7598 86.1738 30.7598ZM100.715 32V25.0957C100.715 24.2493 100.542 23.6146 100.197 23.1914C99.8587 22.7682 99.3249 22.5566 98.5957 22.5566C98.0684 22.5566 97.6257 22.6413 97.2676 22.8105C96.9095 22.9798 96.6198 23.2305 96.3984 23.5625C96.1836 23.8945 96.0273 24.3014 95.9297 24.7832C95.8385 25.265 95.793 25.8184 95.793 26.4434V32H94.0156V21.2773H95.4609L95.7148 22.7227H95.8125C95.9753 22.4427 96.1673 22.2018 96.3887 22C96.6165 21.7917 96.8639 21.6191 97.1309 21.4824C97.3978 21.3457 97.681 21.2448 97.9805 21.1797C98.2799 21.1146 98.5859 21.082 98.8984 21.082C100.09 21.082 100.985 21.3945 101.584 22.0195C102.189 22.638 102.492 23.6309 102.492 24.998V32H100.715ZM107.434 26.4629L108.752 24.8027L111.613 21.2773H113.674L109.758 25.916L113.938 32H111.896L108.615 27.0781L107.551 27.8789V32H105.793V16.8047H107.551V23.7773L107.395 26.4629H107.434Z" fill="#020614" fill-opacity="0.78"/>
<defs>
<filter id="filter0_i_0_1" x="3.16667" y="4.24333" width="31.6667" height="36.4233" filterUnits="userSpaceOnUse" color-interpolation-filters="sRGB">
<feFlood flood-opacity="0" result="BackgroundImageFix"/>
<feBlend mode="normal" in="SourceGraphic" in2="BackgroundImageFix" result="shape"/>
<feColorMatrix in="SourceAlpha" type="matrix" values="0 0 0 0 0 0 0 0 0 0 0 0 0 0 0 0 0 0 127 0" result="hardAlpha"/>
<feOffset dy="4"/>
<feGaussianBlur stdDeviation="2"/>
<feComposite in2="hardAlpha" operator="arithmetic" k2="-1" k3="1"/>
<feColorMatrix type="matrix" values="0 0 0 0 0.028125 0 0 0 0 0.0478125 0 0 0 0 0.225 0 0 0 0.67 0"/>
<feBlend mode="normal" in2="shape" result="effect1_innerShadow_0_1"/>
</filter>
</defs>
</svg>
